<?xml version="1.0" encoding="UTF-8" standalone="no"?>
<!-- Generator: Adobe Illustrator 22.1.0, SVG Export Plug-In . SVG Version: 6.00 Build 0)  -->

<svg
   version="1.1"
   id="Layer_1"
   x="0px"
   y="0px"
   viewBox="0 0 22.799999 29.300001"
   xml:space="preserve"
   sodipodi:docname="argo.svg"
   width="22.799999"
   height="29.300001"
   inkscape:version="1.4.3 (0d15f75, 2025-12-25)"
   xmlns:inkscape="http://www.inkscape.org/namespaces/inkscape"
   xmlns:sodipodi="http://sodipodi.sourceforge.net/DTD/sodipodi-0.dtd"
   xmlns:xlink="http://www.w3.org/1999/xlink"
   xmlns="http://www.w3.org/2000/svg"
   xmlns:svg="http://www.w3.org/2000/svg"><defs
   id="defs37" /><sodipodi:namedview
   id="namedview37"
   pagecolor="#ffffff"
   bordercolor="#000000"
   borderopacity="0.25"
   inkscape:showpageshadow="2"
   inkscape:pageopacity="0.0"
   inkscape:pagecheckerboard="0"
   inkscape:deskcolor="#d1d1d1"
   inkscape:zoom="21.204819"
   inkscape:cx="11.530398"
   inkscape:cy="13.746875"
   inkscape:window-width="1884"
   inkscape:window-height="1186"
   inkscape:window-x="0"
   inkscape:window-y="30"
   inkscape:window-maximized="0"
   inkscape:current-layer="Layer_1" />
<style
   type="text/css"
   id="style1">
	.st0{fill:#E9654B;}
	.st1{fill:#B6CFEA;}
	.st2{fill:#E6F5F8;}
	.st3{fill:#D0E8F0;}
	.st4{fill:#EE794B;}
	.st5{clip-path:url(#SVGID_2_);}
	.st6{opacity:0.22;}
	.st7{fill:#E34E3B;}
	.st8{opacity:0.5;}
	.st9{fill:#FBDFC3;}
	.st10{fill:#010101;}
	.st11{fill:#FFFFFF;}
	.st12{opacity:0.25;}
</style>
<g
   id="g37"
   transform="translate(-9.2,-6.999999)">
	<g
   id="g3">
		<g
   id="g1">
			<path
   class="st0"
   d="m 16,27.7 c 0,0 -0.2,0.6 -0.5,0.9 -0.2,0.2 -0.4,0.3 -0.7,0.3 -0.7,0.2 -1.5,0.3 -1.5,0.3 0,0 0.7,0.1 1.5,0.2 0.3,0 0.3,0 0.5,0.1 0.5,0 0.7,-0.3 0.7,-0.3 z"
   id="path1" />
		</g>
		<g
   id="g2">
			<path
   class="st0"
   d="m 25.2,27.7 c 0,0 0.2,0.6 0.5,0.9 0.2,0.2 0.4,0.3 0.7,0.3 0.7,0.2 1.5,0.3 1.5,0.3 0,0 -0.7,0.1 -1.6,0.2 -0.3,0 -0.3,0 -0.5,0.1 -0.6,0 -0.7,-0.3 -0.7,-0.3 z"
   id="path2" />
		</g>
	</g>
	<g
   id="g36">
		<g
   id="g4">
			<circle
   class="st1"
   cx="20.700001"
   cy="17.799999"
   r="10.8"
   id="circle3" />
		</g>
		<g
   id="g5">
			<circle
   class="st2"
   cx="20.700001"
   cy="17.799999"
   r="10.4"
   id="circle4" />
		</g>
		<g
   id="g6">
			<circle
   class="st3"
   cx="20.700001"
   cy="18"
   r="8.5"
   id="circle5" />
		</g>
		<g
   id="Body_1_">
			<g
   id="g7">
				<path
   class="st4"
   d="m 15.7,22 c 0,0 0.7,11.3 0.7,11.5 0,0.1 0.1,0.3 -0.4,0.5 -0.5,0.2 -2.1,0.6 -2.1,0.6 0,0 1.2,0 2.4,0 1.1,0 1.1,-0.9 1.1,-1.1 0,-0.2 0.3,-4.5 0.3,-4.5 0,0 0.1,5.1 0.1,5.3 0,0.2 -0.1,0.5 -0.8,0.7 -0.5,0.1 -2,0.4 -2,0.4 0,0 1.7,0 2.3,0 1.4,0 1.4,-0.9 1.4,-0.9 L 19,30 c 0,0 0.1,4.5 0.1,5 0,0.4 -0.3,0.7 -1.4,0.9 -0.7,0.2 -1.6,0.4 -1.6,0.4 0,0 1.9,0 2.6,0 1.3,-0.1 1.5,-1 1.5,-1 l 2.2,-11.2 z"
   id="path6" />
			</g>
			<g
   id="g8">
				<path
   class="st4"
   d="m 25.7,22 c 0,0 -0.7,11.3 -0.7,11.5 0,0.1 -0.1,0.3 0.4,0.5 0.5,0.2 2.1,0.6 2.1,0.6 0,0 -1.2,0 -2.4,0 C 24,34.6 24,33.7 24,33.5 24,33.3 23.7,29 23.7,29 c 0,0 -0.1,5.1 -0.1,5.3 0,0.2 0.1,0.5 0.8,0.7 0.5,0.1 2,0.4 2,0.4 0,0 -1.7,0 -2.3,0 -1.4,0 -1.4,-0.9 -1.4,-0.9 L 22.4,30 c 0,0 -0.1,4.5 -0.1,5 0,0.4 0.3,0.7 1.4,0.9 0.7,0.2 1.6,0.4 1.6,0.4 0,0 -1.9,0 -2.6,0 -1.3,-0.1 -1.5,-1 -1.5,-1 L 19,24.1 Z"
   id="path7" />
			</g>
			<g
   id="g9">
				<path
   class="st4"
   d="m 25.8,16.5 c 0,2.8 -2.3,5 -5,5 -2.7,0 -5,-2.3 -5,-5 0,-2.7 2.3,-5 5,-5 2.7,0 5,2.2 5,5 z"
   id="path8" />
			</g>
			<g
   id="g12">
				<g
   id="g11">
					<defs
   id="defs9">
						<polyline
   id="SVGID_1_"
   points="25.8,16.3 25.2,30 16.2,30 15.7,16.3       " />
					</defs>
					<clipPath
   id="SVGID_2_">
						<use
   xlink:href="#SVGID_1_"
   style="overflow:visible"
   id="use9" />
					</clipPath>
					<g
   class="st5"
   clip-path="url(#SVGID_2_)"
   id="g10">
						<circle
   class="st4"
   cx="20.799999"
   cy="19.200001"
   r="8.8999996"
   id="circle9" />
					</g>
				</g>
			</g>
			<g
   class="st6"
   id="g13">
				<path
   class="st7"
   d="m 25.5,22 c 0,0 0.6,-5.3 -0.2,-7.3 -1.5,-3.5 -5,-3.2 -5,-3.2 0,0 2,0.8 2.1,3.8 0.1,2.1 0,5.2 0,5.2 z"
   id="path12" />
			</g>
		</g>
		<g
   id="Face_1_">
			<g
   class="st8"
   id="g15">
				<g
   id="g14">
					<circle
   class="st9"
   cx="18.700001"
   cy="13.8"
   r="0.69999999"
   id="circle13" />
				</g>
			</g>
			<g
   id="g30">
				<g
   id="g18">
					<g
   id="g16">
						<path
   class="st10"
   d="m 22.5,24 c 0,1.7 -0.8,2.8 -1.8,2.8 -1,0 -1.8,-1.3 -1.8,-3 0,0 0.8,1.6 1.9,1.6 1.1,0 1.7,-1.4 1.7,-1.4 z"
   id="path15" />
					</g>
					<g
   id="g17">
						<path
   class="st11"
   d="m 22.5,24 c 0,1.1 -0.8,1.7 -1.8,1.7 -1,0 -1.7,-0.8 -1.7,-1.8 0,0 0.8,1 1.9,1 1.1,0 1.6,-0.9 1.6,-0.9 z"
   id="path16" />
					</g>
				</g>
				<g
   id="g29">
					<g
   id="g25">
						<g
   id="g21">
							<g
   id="g19">
								<circle
   class="st0"
   cx="24.200001"
   cy="19.299999"
   r="3.0999999"
   id="circle18" />
							</g>
							<g
   id="g20">
								<circle
   class="st0"
   cx="17.200001"
   cy="19.299999"
   r="3.0999999"
   id="circle19" />
							</g>
						</g>
						<g
   id="g24">
							<g
   id="g22">
								<circle
   class="st11"
   cx="24.200001"
   cy="19.299999"
   r="2.4000001"
   id="circle21" />
							</g>
							<g
   id="g23">
								<circle
   class="st11"
   cx="17"
   cy="19.299999"
   r="2.4000001"
   id="circle22" />
							</g>
						</g>
					</g>
					<g
   id="g28">
						<g
   id="g26">
							<circle
   class="st10"
   cx="17"
   cy="19"
   r="0.69999999"
   id="circle25" />
						</g>
						<g
   id="g27">
							<circle
   class="st10"
   cx="24.200001"
   cy="19"
   r="0.69999999"
   id="circle26" />
						</g>
					</g>
				</g>
			</g>
		</g>
		<g
   id="g31">
			<path
   class="st1"
   d="m 9.7,20.5 v 0 C 9.4,20.5 9.2,20.3 9.2,20 v -4 c 0,-0.3 0.2,-0.5 0.5,-0.5 v 0 c 0.3,0 0.5,0.2 0.5,0.5 v 4 c 0,0.3 -0.2,0.5 -0.5,0.5 z"
   id="path30" />
		</g>
		<g
   id="g32">
			<path
   class="st1"
   d="m 31.5,20.5 v 0 C 31.2,20.5 31,20.3 31,20 v -4 c 0,-0.3 0.2,-0.5 0.5,-0.5 v 0 c 0.3,0 0.5,0.2 0.5,0.5 v 4 c 0,0.3 -0.2,0.5 -0.5,0.5 z"
   id="path31" />
		</g>
		<g
   id="g33">
			<circle
   class="st11"
   cx="17.299999"
   cy="9.8000002"
   r="0.5"
   id="circle32" />
		</g>
		<g
   id="g34">
			<path
   class="st11"
   d="m 13.7,23.3 c -0.1,0 -0.2,0 -0.3,-0.1 -1.2,-1.5 -1.8,-3.4 -1.8,-5.3 0,-1.6 0.4,-3.1 1.2,-4.5 0.8,-1.3 1.9,-2.4 3.2,-3.2 0.2,-0.1 0.4,0 0.5,0.1 0.1,0.2 0,0.4 -0.1,0.5 -2.5,1.4 -4.1,4.1 -4.1,7 0,1.8 0.6,3.5 1.7,4.9 0.1,0.1 0.1,0.4 -0.1,0.5 -0.1,0.1 -0.1,0.1 -0.2,0.1 z"
   id="path33" />
		</g>
		<g
   class="st12"
   id="g35">
			<path
   class="st0"
   d="m 25.2,28 v -0.8 c -1.4,0.8 -2.9,1.6 -4.7,1.6 -2,0 -3.3,-0.9 -4.6,-1.6 L 16,28 c 0,0 1.5,1.6 4.6,1.6 2.9,-0.1 4.6,-1.6 4.6,-1.6 z"
   id="path34" />
		</g>
	</g>
</g>
</svg>
