<?xml version="1.0" encoding="UTF-8" standalone="no"?>
<svg
   width="468.7496pc"
   height="300.61868pc"
   viewBox="0 0 7499.9937 4809.8989"
   version="1.1"
   xml:space="preserve"
   style="clip-rule:evenodd;fill-rule:evenodd;stroke-linejoin:round;stroke-miterlimit:2"
   id="svg3"
   sodipodi:docname="logo.svg"
   inkscape:version="1.4.3 (0d15f75, 2025-12-25)"
   xmlns:inkscape="http://www.inkscape.org/namespaces/inkscape"
   xmlns:sodipodi="http://sodipodi.sourceforge.net/DTD/sodipodi-0.dtd"
   xmlns="http://www.w3.org/2000/svg"
   xmlns:svg="http://www.w3.org/2000/svg"><defs
   id="defs3" /><sodipodi:namedview
   id="namedview3"
   pagecolor="#ffffff"
   bordercolor="#000000"
   borderopacity="0.25"
   inkscape:showpageshadow="2"
   inkscape:pageopacity="0.0"
   inkscape:pagecheckerboard="0"
   inkscape:deskcolor="#d1d1d1"
   inkscape:zoom="0.10311694"
   inkscape:cx="3757.8693"
   inkscape:cy="2405.0364"
   inkscape:window-width="2066"
   inkscape:window-height="1173"
   inkscape:window-x="0"
   inkscape:window-y="30"
   inkscape:window-maximized="0"
   inkscape:current-layer="svg3"
   inkscape:document-units="pc" />
    <g
   transform="matrix(8.33333,0,0,8.33333,-516.64705,-1861.7253)"
   id="g3">
        <g
   transform="matrix(1.098,0,0,1.12501,-51.3212,-14.3169)"
   id="g1">
            <path
   d="m 294.247,680.972 c 0.004,11.897 0.004,11.901 11.363,11.891 9.166,-0.008 18.337,-0.21 27.496,0.034 4.44,0.118 5.71,-1.562 5.702,-5.843 -0.107,-56.662 -0.109,-113.324 0.002,-169.986 0.007,-3.688 -1.497,-5.62 -4.358,-7.584 -13.497,-9.266 -18.381,-22.248 -15.637,-38.198 2.282,-13.266 13.64,-24.549 27.7,-27.756 16.982,-3.873 34.117,4.68 41.226,20.578 7.198,16.097 2.223,34.948 -12.345,44.717 -4.001,2.683 -5.298,5.478 -5.287,10.135 0.141,61.828 0.092,123.657 0.087,185.485 -0.001,14.327 -5.575,19.851 -20.019,19.848 -25.332,-0.006 -50.663,0.032 -75.995,-0.032 C 190.511,724.048 119.126,663.256 105.547,580.693 92.61,502.042 134.185,426.141 207.518,394.79 c 3.617,-1.546 5.591,-3.454 6.147,-7.435 7.983,-57.156 50.299,-103.118 106.57,-115.611 25.786,-5.726 51.297,-4.241 76.24,4.474 4.105,1.435 6.087,0.504 8.722,-2.63 29.259,-34.8 66.415,-55.353 111.619,-60.968 69.775,-8.668 136.623,26.256 170.137,86.114 1.554,2.775 2.974,4.188 6.588,3.565 49.866,-8.604 99.337,25.82 108.741,75.52 1.458,7.705 2.418,15.479 1.894,23.327 -0.233,3.487 1.165,4.92 4.389,6.006 58.305,19.644 96.339,59.035 109.773,119.075 14.064,62.856 -4.83,116.451 -52.893,159.282 -24.055,21.436 -52.822,33.192 -84.619,37.529 -6.07,0.827 -12.204,1.352 -18.401,1.319 -29.33,-0.153 -58.661,-0.057 -87.992,-0.074 -12.852,-0.007 -18.687,-5.78 -18.692,-18.592 -0.025,-62.162 -0.055,-124.324 0.057,-186.485 0.009,-4.531 -0.958,-7.471 -5.095,-10.217 -13.681,-9.081 -19.087,-26.455 -13.762,-41.916 5.433,-15.771 19.885,-25.214 37.278,-24.355 15.21,0.75 28.787,12.149 32.552,27.328 3.778,15.236 -1.916,30.529 -15.076,39.263 -3.349,2.222 -4.547,4.596 -4.539,8.525 0.108,56.162 0.13,112.324 -0.022,168.486 -0.014,4.945 1.253,6.777 6.428,6.608 10.987,-0.359 21.996,-0.222 32.993,-0.069 3.903,0.054 5.211,-1.408 5.194,-5.293 -0.119,-26.664 -0.123,-53.329 0.017,-79.993 0.018,-3.443 -1.687,-4.961 -4.231,-6.588 -13.639,-8.724 -19.835,-25.573 -15.25,-41.023 4.737,-15.964 18.889,-26.421 35.509,-26.238 16.009,0.176 29.876,10.722 34.531,26.262 4.518,15.083 -1.222,31.481 -14.615,40.349 -3.541,2.345 -4.696,4.836 -4.668,8.945 0.174,25.83 0.198,51.662 -0.004,77.492 -0.038,4.909 1.552,6.364 6.342,6.004 28.846,-2.172 54.544,-12.223 76.304,-31.268 32.043,-28.044 47.815,-63.681 45.823,-106.227 -2.822,-60.269 -46.04,-110.104 -105.659,-121.86 -12.528,-2.471 -17.271,-9.318 -14.604,-21.816 7.648,-35.847 -12.6,-68.776 -47.942,-77.658 -11.9,-2.99 -23.958,-2.744 -35.391,1.694 -9.242,3.587 -18.309,-1.015 -22.385,-9.892 -19.393,-42.234 -51.944,-69.012 -97.111,-79.825 -54.858,-13.134 -113.707,9.827 -145.808,56.254 -2.074,2.999 -3.878,6.217 -7.1,8.279 -5.628,3.602 -11.22,3.369 -17.049,0.432 -15.289,-7.704 -31.589,-11.727 -48.653,-11.433 -58.405,1.006 -100.495,44.594 -105.649,94.859 -0.17,1.655 -0.813,3.322 -0.683,4.938 0.975,12.136 -5.62,17.401 -16.365,21.489 -51.885,19.741 -82.982,57.466 -91.466,112.237 -11.677,75.39 41.878,146.797 117.558,158.46 2.911,0.449 5.874,0.56 8.572,0.806 1.497,-2.073 1.046,-3.971 1.049,-5.749 0.045,-25.664 -0.012,-51.329 0.11,-76.993 0.019,-3.968 -0.849,-6.597 -4.559,-8.984 -14.098,-9.07 -19.68,-26.74 -14.029,-42.616 5.409,-15.193 20.986,-25.466 36.543,-24.099 17.448,1.533 30.833,13.494 33.525,30.507 2.451,15.482 -3.13,27.825 -16.072,36.537 -3.055,2.057 -4.174,4.113 -4.156,7.649 0.117,23.993 0.062,47.987 0.064,72.475 z"
   style="fill:#4185e8;fill-rule:nonzero"
   id="path1" />
        </g>
        <g
   transform="matrix(1.0993,0,0,1.23773,-50.5722,-50.9239)"
   id="g2">
            <path
   d="m 487,687.915 c -19.83,0.008 -39.159,0.02 -58.489,0.024 -6.804,0.002 -6.84,-0.024 -6.841,-6.513 -0.005,-60.488 0.06,-120.976 -0.117,-181.464 -0.015,-5.176 1.603,-6.413 6.536,-6.386 35.159,0.196 70.324,-0.22 105.477,0.265 17.761,0.245 35.21,3.15 50.382,13.557 26.322,18.055 26.981,55.398 1.387,74.438 -5.543,4.124 -5.514,4.51 0.588,7.814 22.452,12.158 32.157,34.839 25.061,59.182 -4.052,13.898 -13.854,22.884 -26.436,29.059 -12.605,6.186 -26.213,8.619 -40.082,9.362 -18.971,1.015 -37.974,0.648 -57.466,0.662 m 2.14,-47.351 c 13.79,0.038 27.584,0.292 41.369,0.037 8.623,-0.16 14.374,-4.881 15.287,-11.544 1.31,-9.561 -4.103,-16.236 -14.538,-16.632 -13.278,-0.505 -26.585,-0.207 -39.879,-0.332 -3.243,-0.03 -4.436,1.506 -4.378,4.579 0.085,4.486 -0.155,8.984 0.081,13.458 0.178,3.375 -1.203,6.995 2.058,10.434 m 25.249,-100.255 c -7.311,0.004 -14.622,0.027 -21.932,0.007 -3.581,-0.01 -5.606,1.333 -5.506,5.3 0.151,5.977 0.09,11.962 0.023,17.942 -0.033,2.956 1.282,4.206 4.22,4.145 4.318,-0.09 8.642,0.089 12.959,-0.026 7.609,-0.203 15.301,0.912 22.796,-1.256 6.722,-1.944 10.061,-6.408 9.896,-13.108 -0.153,-6.23 -3.857,-10.437 -10.619,-11.933 -3.574,-0.791 -7.193,-1.284 -11.837,-1.071 z"
   style="fill:#4185e8;fill-rule:nonzero"
   id="path2" />
        </g>
    </g>
</svg>
