<?xml version="1.0" encoding="UTF-8" standalone="no"?>
<svg
   width="109.76884pc"
   height="125.31551pc"
   viewBox="0 0 1756.3014 2005.0481"
   version="1.1"
   xml:space="preserve"
   style="clip-rule:evenodd;fill-rule:evenodd;stroke-linejoin:round;stroke-miterlimit:2"
   id="svg3"
   sodipodi:docname="favicon.svg"
   inkscape:version="1.4.3 (0d15f75, 2025-12-25)"
   xmlns:inkscape="http://www.inkscape.org/namespaces/inkscape"
   xmlns:sodipodi="http://sodipodi.sourceforge.net/DTD/sodipodi-0.dtd"
   xmlns="http://www.w3.org/2000/svg"
   xmlns:svg="http://www.w3.org/2000/svg"><defs
   id="defs3" /><sodipodi:namedview
   id="namedview3"
   pagecolor="#ffffff"
   bordercolor="#000000"
   borderopacity="0.25"
   inkscape:showpageshadow="2"
   inkscape:pageopacity="0.0"
   inkscape:pagecheckerboard="0"
   inkscape:deskcolor="#d1d1d1"
   inkscape:zoom="0.10311694"
   inkscape:cx="838.85341"
   inkscape:cy="-397.60682"
   inkscape:window-width="2066"
   inkscape:window-height="1173"
   inkscape:window-x="0"
   inkscape:window-y="30"
   inkscape:window-maximized="0"
   inkscape:current-layer="g3"
   inkscape:document-units="pc" />
    <g
   transform="matrix(8.33333,0,0,8.33333,-3440.3395,-4666.5764)"
   id="g3">
        
        <g
   transform="matrix(1.0993,0,0,1.23773,-50.5722,-50.9239)"
   id="g2">
            <path
   d="m 487,687.915 c -19.83,0.008 -39.159,0.02 -58.489,0.024 -6.804,0.002 -6.84,-0.024 -6.841,-6.513 -0.005,-60.488 0.06,-120.976 -0.117,-181.464 -0.015,-5.176 1.603,-6.413 6.536,-6.386 35.159,0.196 70.324,-0.22 105.477,0.265 17.761,0.245 35.21,3.15 50.382,13.557 26.322,18.055 26.981,55.398 1.387,74.438 -5.543,4.124 -5.514,4.51 0.588,7.814 22.452,12.158 32.157,34.839 25.061,59.182 -4.052,13.898 -13.854,22.884 -26.436,29.059 -12.605,6.186 -26.213,8.619 -40.082,9.362 -18.971,1.015 -37.974,0.648 -57.466,0.662 m 2.14,-47.351 c 13.79,0.038 27.584,0.292 41.369,0.037 8.623,-0.16 14.374,-4.881 15.287,-11.544 1.31,-9.561 -4.103,-16.236 -14.538,-16.632 -13.278,-0.505 -26.585,-0.207 -39.879,-0.332 -3.243,-0.03 -4.436,1.506 -4.378,4.579 0.085,4.486 -0.155,8.984 0.081,13.458 0.178,3.375 -1.203,6.995 2.058,10.434 m 25.249,-100.255 c -7.311,0.004 -14.622,0.027 -21.932,0.007 -3.581,-0.01 -5.606,1.333 -5.506,5.3 0.151,5.977 0.09,11.962 0.023,17.942 -0.033,2.956 1.282,4.206 4.22,4.145 4.318,-0.09 8.642,0.089 12.959,-0.026 7.609,-0.203 15.301,0.912 22.796,-1.256 6.722,-1.944 10.061,-6.408 9.896,-13.108 -0.153,-6.23 -3.857,-10.437 -10.619,-11.933 -3.574,-0.791 -7.193,-1.284 -11.837,-1.071 z"
   style="fill:#4185e8;fill-rule:nonzero"
   id="path2" />
        </g>
    </g>
</svg>
