<svg xmlns="http://www.w3.org/2000/svg" xmlns:xlink="http://www.w3.org/1999/xlink" width="304px" height="358px" viewBox="0 0 304 358" version="1.1">
    <title>kargo-kangaroo</title>
    <g id="Full-Body" stroke="none" stroke-width="1" fill="none" fill-rule="evenodd">
        <g id="kargo_vertical" transform="translate(-47, 2.7049)">
            <g id="kargo-kangaroo" transform="translate(49.0708, 0)">
                <g id="fill" transform="translate(0, 1.3819)" fill-rule="nonzero">
                    <path d="M152.711866,35.0814004 C152.711866,35.0814004 152.711866,35.0814004 152.711866,35.0814004 C149.611866,29.1814004 143.811866,25.0814004 137.411866,23.6814004 C130.011866,21.9814004 122.211866,23.5814004 115.511866,27.0814004 C111.811866,28.9814004 108.511866,31.5814004 105.411866,34.3814004 C104.511866,35.1814004 104.711866,36.2814004 105.311866,36.9814004 C105.511866,37.4814004 106.011866,37.9814004 106.611866,38.0814004 C118.811866,40.2814004 130.911866,43.1814004 142.711866,46.9814004 C143.311866,47.2814004 144.011866,47.3814004 144.611866,46.9814004 C148.011866,44.4814004 150.911866,41.1814004 152.811866,37.3814004 C153.211866,36.5814004 153.211866,35.6814004 152.711866,35.0814004 L152.711866,35.0814004 Z" id="hat-fill" fill="#5FB7FF"/>
                    <path d="M111.211866,39.5814004 C101.211866,36.1814004 90.7118662,34.0814004 80.2118662,33.3814004 C74.9118662,32.9814004 69.6118662,32.9814004 64.4118662,33.3814004 C62.4118662,33.4814004 59.7118662,33.2814004 58.0118662,34.6814004 C55.9118662,36.3814004 56.9118662,38.9814004 58.5118662,40.5814004 C62.4118662,44.2814004 67.0118662,47.0814004 71.9118662,49.0814004 C72.3118662,49.5814004 73.0118662,49.7814004 73.8118662,49.5814004 C84.6118662,45.8814004 103.244398,42.2413444 110.211866,43.4814004 C112.611866,44.2814004 113.611866,40.3814004 111.211866,39.5814004 Z" id="hat-brim-fill" fill="#3087C2"/>
                    <path d="M299.411866,347.881401 C281.811866,347.881401 260.511866,341.881401 244.911866,333.281401 C229.511866,324.681401 216.011866,312.181401 206.211866,297.081401 C209.211866,295.781401 212.111866,294.181401 214.611866,292.081401 C216.111866,290.881401 217.411866,289.481401 218.611866,287.781401 C222.411866,282.281401 222.911866,275.181401 223.111866,268.581401 C223.411866,261.381401 223.611866,253.881401 223.711866,246.381401 C229.611866,273.281401 242.111866,298.781401 260.011866,319.681401 C269.711866,331.281401 282.011866,340.981401 296.611866,344.981401 C299.011866,345.681401 299.911866,346.781401 299.411866,347.881401 Z" id="tail-top-fur" fill="#E59655"/>
                    <path d="M295.011866,349.881401 C274.811866,351.881401 254.211866,352.481401 235.011866,345.781401 C218.611866,339.981401 203.611866,329.981401 192.211866,316.781401 C192.911866,311.481401 193.611866,305.681401 194.311866,299.681401 C198.011866,300.181401 201.911866,298.981401 205.411866,297.481401 C205.711866,297.381401 205.911866,297.281401 206.211866,297.181401 C216.111866,312.281401 229.511866,324.781401 244.911866,333.381401 C260.511866,341.881401 281.711866,347.881401 299.411866,347.881401 C299.011866,348.781401 297.511866,349.581401 295.011866,349.881401 Z" id="tail-bottom-fur" fill="#FADDC0"/>
                    <path d="M206.211866,297.081401 C205.911866,297.181401 205.711866,297.281401 205.411866,297.381401 C201.911866,298.881401 198.011866,300.081401 194.311866,299.581401 C193.711866,305.581401 193.011866,311.381401 192.211866,316.681401 C189.511866,337.081401 186.611866,351.581401 186.611866,351.581401 L103.211866,351.581401 L111.411866,335.881401 C111.411866,335.881401 108.011866,316.281401 107.311866,303.081401 L107.311866,302.981401 C113.511866,303.381401 119.711866,303.281401 125.811866,302.681401 C125.811866,302.681401 125.811866,302.181401 125.811866,302.181401 C149.80843,290.281401 153.088319,260.626915 152.188319,250.126915 C148.988319,212.926915 145.578788,187.395934 129.711866,153.181401 C113.844944,118.966867 82.2118662,98.1814004 47.8118662,84.0814004 C47.7118662,84.0814004 47.6118662,83.9814004 47.5118662,83.9814004 C32.7118662,79.5814004 16.6118662,79.7814004 1.91186624,84.4814004 C1.61186624,84.5814004 1.31186624,84.7814004 1.21186624,84.9814004 L0.611866238,84.7814004 C0.811866238,84.3814004 1.21186624,84.0814004 1.61186624,83.8814004 C16.8268377,75.0592741 36.9829316,71.7143117 53.585969,64.3814004 C62.954212,60.2438145 67.8511172,51.1031959 78.3118662,48.1814004 C82.5118662,46.9814004 86.6118662,46.0814004 90.6118662,45.3814004 C105.811866,42.5814004 120.111866,42.8814004 134.811866,45.3814004 C138.211866,45.9814004 141.611866,46.5814004 145.011866,47.3814004 C149.711866,41.5814004 157.111866,32.6814004 162.111866,27.6814004 C166.911866,22.8814004 174.684202,12.6345913 189.359278,8.81051711 C204.034353,4.9864429 208.542066,15.2688633 207.376966,22.0524035 C206.211866,28.8359438 196.067036,44.7284308 165.933702,58.0514644 C185.92899,68.8221224 192.702477,86.9145561 197.997959,95.9236934 C203.29344,104.932831 221.663746,182.744214 223.611866,246.381401 C223.511866,253.881401 223.511866,261.281401 223.111866,268.581401 C222.811866,275.281401 222.311866,282.281401 218.611866,287.781401 C217.411866,289.481401 216.111866,290.881401 214.611866,292.081401 C212.111866,294.181401 209.211866,295.781401 206.211866,297.081401 Z" id="right-side-fur" fill="#E59655"/>
                    <path d="M111.411866,335.981401 L103.211866,351.681401 L41.8118662,351.681401 L47.7118662,340.181401 C44.1118662,323.581401 40.2118662,306.981401 36.9118662,290.181401 C36.1118662,285.981401 35.3118662,281.681401 34.6118662,277.481401 C32.4118662,264.081401 30.8118662,250.581401 30.4118662,237.081401 C30.0118662,224.281401 30.8118662,211.481401 32.5118662,198.681401 C32.8118662,215.581401 33.1118662,232.581401 37.5118662,248.881401 C41.9118662,265.381401 51.0118662,281.281401 65.3118662,290.481401 C83.0118662,301.881401 104.911866,304.181401 125.811866,302.681401 C119.611866,303.381401 113.411866,303.481401 107.311866,303.081401 C108.011866,316.381401 111.411866,335.981401 111.411866,335.981401 Z" id="left-leg-fur" fill="#E59655"/>
                    <path d="M23.4118662,97.4814004 C32.3118662,97.4814004 32.9112892,88.5729516 38.8112892,81.7729516 C39.2112892,81.3062849 40.4409939,81.6286145 42.5004033,82.7399404 C63.1668011,86.8849399 78.946284,91.8065907 89.8388519,97.5048927 C115.230353,110.788119 127.261866,133.039156 135.361866,151.642807 C150.900087,187.33017 161.033919,212.199879 159.557678,249.580731 C158.476676,276.953492 152.333506,286.83323 145.284007,294.218998 C138.234507,301.604766 121.711895,303.121401 119.211895,303.321401 C119.211895,303.321401 113.832762,304.981401 95.1573936,302.181401 C76.4820251,299.381401 73.4058331,297.959987 61.8245085,290.181401 C47.5545566,280.597001 41.8118662,265.381401 37.4118662,248.881401 C33.0118662,232.581401 32.7118662,215.581401 32.4118662,198.681401 C33.6118662,189.981401 35.2118662,181.381401 37.2118662,172.781401 C40.0118662,160.781401 44.3607329,146.077749 48.5607329,134.577749 C36.8118662,130.049304 21.6443254,125.834952 16.5443254,119.234952 C8.44432542,108.834952 -1.58813376,99.1814009 0.211866238,85.8814004 C0.311866238,85.3814004 0.411866238,84.9814004 0.711866238,84.6814004 L1.31186624,84.8814004 C1.01186624,85.3814004 0.911866238,86.0814004 1.41186624,86.6814004 C6.71186624,93.3814004 14.5118662,97.4814004 23.2118662,97.4814004 L23.4118662,97.4814004 Z" id="belly-fur" fill="#FADDC0"/>
                    <path d="M139.362686,16.3647772 C141.450181,10.7289127 142.635026,3.2116911 137.211866,0.694222497 C133.01518,-1.25390874 126.401767,0.898102987 117.37163,7.15025767 C110.911156,14.6029416 105.414719,24.5466559 100.88232,36.9814004 C103.58232,37.3814004 99.7118662,36.1814004 102.211866,36.9814004 C105.211866,32.4814004 110.011866,29.2814004 115.711866,26.7814004 C124.211866,23.0814004 128.511866,21.6301393 137.211866,24.6301393 C137.911866,22.1301393 138.483742,18.7377727 139.362686,16.3647772 Z" id="left-ear-fill" fill="#E59655"/>
                    <path d="M32.4118662,198.781401 C30.7118662,211.481401 30.0118662,224.381401 30.3118662,237.181401 C30.5785329,246.181401 32.7785424,263.881401 36.9118948,290.281401 C26.7532098,287.59879 24.8118662,271.481401 23.7118662,267.281401 C21.3118662,253.681401 22.1118662,239.481401 24.6118662,225.881401 C27.9118662,207.681401 31.9118662,190.781401 37.1118662,172.981401 C35.2118662,181.381401 33.6118662,190.081401 32.4118662,198.781401 Z" id="left-arm-fill" fill="#E59655"/>
                </g>
                <g id="outline" transform="translate(0.0716, 0)" stroke="#351904" stroke-linecap="round">
                    <path d="M83.1090944,135.959671 C70.8436149,137.019642 59.3036372,136.739092 48.4891614,135.11802 C13.8283367,129.92242 -1.6597052,100.663323 0.140294796,87.3633225 C0.240294796,86.8633225 0.340294796,86.4633225 0.640294796,86.1633225 C0.840294796,85.7633225 1.2402948,85.4633225 1.6402948,85.2633225 C25.4402948,71.4633225 37.1272614,72.7051465 53.5143975,65.7633225 C57.3830568,64.1245034 69.4775208,49.9633225 87.8775208,46.1633225 C102.140295,42.5457984 117.482381,43.0072074 145.507188,50.5633225" id="face" stroke-width="4" stroke-linejoin="round"/>
                    <path d="M11.1621049,114.795267 C17.8838311,120.062997 31.6811934,122.84026 39.5913997,122.84026 C47.501606,122.84026 67.6646975,123.613329 73.4284286,116.116498" id="smile" stroke-width="4" stroke-linejoin="round"/>
                    <path d="M18.3616322,98.7633225 C18.4616322,99.7633225 19.3294427,109.719138 25.8362943,120.674953" id="philtrum" stroke-width="4" stroke-linejoin="round"/>
                    <path d="M166.715414,59.4333865 C198.598668,74.8987195 217.573628,137.675365 223.640295,247.763323 C223.540295,255.263323 223.440295,262.663323 223.040295,269.963323 C222.740295,276.663323 222.240295,283.663323 218.540295,289.163323 C217.440295,290.763323 216.040295,292.163323 214.540295,293.463323 C212.040295,295.563323 209.140295,297.163323 206.140295,298.463323 C205.840295,298.563323 205.640295,298.663323 205.340295,298.863323 C201.840295,300.363323 197.940295,301.563323 194.240295,301.063323 C193.640295,300.963323 193.040295,300.863323 192.440295,300.663323 C186.440295,298.763323 184.840295,293.963323 184.240295,286.063323 C183.940295,282.663323 183.840295,278.663323 183.640295,274.063323" id="back" stroke-width="4" stroke-linejoin="round"/>
                    <path d="M171.540295,199.363323 C171.840295,226.963323 172.140295,254.563323 172.440295,282.163323 C172.440295,285.363323 172.640295,288.763323 174.740295,291.163323 C176.840295,293.463323 181.940295,292.863323 184.240295,286.063323" id="right-arm" stroke-width="4" stroke-linejoin="round"/>
                    <path d="M197.140295,300.763323 C197.640295,291.863323 197.440295,283.163323 196.740295,274.063323" id="right-finger-L" stroke-width="4" stroke-linejoin="round"/>
                    <path d="M206.240295,297.863323 C207.040295,291.763323 206.940295,282.663323 206.540295,275.063323" id="right-finger-M" stroke-width="4" stroke-linejoin="round"/>
                    <path d="M214.540295,293.463323 C215.540295,287.763323 215.940295,281.663323 215.840295,275.863323" id="right-finger-R" stroke-width="4" stroke-linejoin="round"/>
                    <path d="M194.140295,301.063323 C193.540295,307.063323 192.840295,312.863323 192.040295,318.163323 C189.340295,338.563323 186.440295,353.063323 186.440295,353.063323 L41.6402948,353.063323 L47.5402948,341.563323 C43.9402948,324.963323 40.0402948,308.363323 36.7402948,291.563323 C35.9402948,287.363323 35.1402948,283.063323 34.4402948,278.863323 C32.2402948,265.463323 30.6402948,251.963323 30.2402948,238.463323 C29.8402948,225.663323 30.6402948,212.863323 32.3402948,200.063323 C33.5402948,191.363323 35.1402948,182.763323 37.1402948,174.163323 C39.9402948,162.163323 44.2891614,147.459671 48.4891614,135.959671" id="body-outline" stroke-width="4" stroke-linejoin="round"/>
                    <path d="M103.140295,353.063323 L111.340295,337.363323 C111.340295,337.363323 107.940295,317.763323 107.240295,304.563323" id="inner-leg" stroke-width="4" stroke-linejoin="round"/>
                    <path d="M73.3342331,299.341909 C84.1120151,304.463323 95.340295,304.223323 107.240295,304.463323 C119.140295,304.703323 132.240295,303.734804 140.225822,299.341909" id="bottom-belly" stroke-width="4" stroke-linejoin="round"/>
                    <path d="M56.7481517,225.963323 C75.252425,231.50998 98.9190917,232.690152 127.748152,229.50384" id="pouch-top" stroke-width="4" stroke-linejoin="round"/>
                    <path d="M72.7915842,237.354602 C82.7096242,239.583153 92.2605162,240.2416 101.44426,239.329945" id="pouch-bottom" stroke-width="4" stroke-linejoin="round"/>
                    <path d="M223.540295,247.763323 C229.440295,274.663323 241.940295,300.163323 259.840295,321.063323 C269.640295,332.563323 281.940295,342.363323 296.540295,346.263323 C298.940295,346.963323 299.840295,348.063323 299.340295,349.163323 C298.940295,350.063323 297.440295,350.863323 294.940295,351.163323 C274.740295,353.163323 254.140295,353.763323 234.940295,347.063323 C218.540295,341.263323 203.540295,331.263323 192.140295,318.063323" id="tail" stroke-width="4" stroke-linejoin="round"/>
                    <path d="M23.7402948,268.563323 C24.5402948,273.063323 25.7402948,277.563323 27.3402948,281.963323 C28.9402948,286.263323 31.1402948,290.663323 36.8402948,291.663323" id="left-hand" stroke-width="4" stroke-linejoin="round"/>
                    <path d="M37.1402948,174.263323 C31.9402948,192.063323 27.9402948,208.863323 24.6402948,227.163323 C22.1402948,240.763323 21.3402948,254.963323 23.7402948,268.563323" id="left-arm" stroke-width="4" stroke-linejoin="round"/>
                    <path d="M23.7402948,268.563323 C23.7402948,268.563323 23.7402948,268.563323 23.7402948,268.563323 C24.8402948,272.763323 26.4402948,276.363323 28.7402948,278.363323 C30.2402948,279.563323 32.5402948,280.363323 34.0402948,279.063323" id="left-hand-thumb" stroke-width="4" stroke-linejoin="round"/>
                    <path d="M100.810749,36.5037607 C105.034704,14.5223251 125.496357,-4.26271551 135.290295,0.846637671 C145.084232,5.95599085 139.907188,16.2855472 137.140295,24.380373" id="left-ear" stroke-width="4" stroke-linejoin="round"/>
                    <path d="M53.7402948,351.963323 C55.4402948,349.463323 57.1402948,346.963323 58.8402948,344.463323" id="left-toe-L" stroke-width="4" stroke-linejoin="round"/>
                    <path d="M66.4402948,352.663323 C67.8402948,350.063323 69.2402948,347.563323 70.6402948,344.963323" id="left-toe-R" stroke-width="4" stroke-linejoin="round"/>
                    <path d="M116.840295,352.463323 C117.940295,349.263323 119.440295,346.163323 121.440295,343.363323" id="right-toe-L" stroke-width="4" stroke-linejoin="round"/>
                    <path d="M132.240295,352.663323 C132.940295,349.163323 134.340295,345.663323 136.440295,342.763323" id="right-toe-R" stroke-width="4" stroke-linejoin="round"/>
                    <path d="M145.507188,50.5633225 C116.715475,40.6074345 89.9402948,33.9633225 62.6402948,34.5633225 C59.7402948,34.6633225 55.9402948,35.6633225 55.9402948,38.5633225 C55.9402948,40.1633225 57.3402948,41.4633225 58.5402948,42.4633225 C62.7402948,45.7633225 68.1436484,49.3886481 73.0436484,51.4886481" id="hat-brim" stroke-width="4" stroke-linejoin="round"/>
                    <path d="M101.261384,38.1269747 C108.361384,31.4269747 118.540295,25.9633225 128.240295,24.9633225 C137.940295,23.9633225 148.140295,27.4633225 154.140295,35.1633225" id="hat" stroke-width="4" stroke-linejoin="round"/>
                    <path d="M163.856413,44.0904507 C170.454462,41.9390319 176.719697,38.7299892 182.65212,34.4633225 C188.584543,30.1966559 192.760749,26.8356727 195.180738,24.380373" id="right-ear-fold" stroke-width="3" stroke-linejoin="round"/>
                    <path d="M145.507188,50.5633225 C147.23155,47.0818837 152.742586,39.915217 162.040295,29.0633225 C175.986858,12.7854809 191.677658,5.02498276 202.425576,10.2023317 C207.564638,12.6778544 215.999603,29.0633225 182.652817,51.0399632 C178.326794,53.8909563 173.014326,56.6887641 166.715414,59.4333865" id="right-ear" stroke-width="4" stroke-linejoin="round"/>
                    <path d="M72.2819285,113.370426 C73.8331713,113.997477 75.0894176,115.2189 76.0506675,117.034695" id="dimple" stroke-width="4"/>
                </g>
                <path d="M1.21186624,88.1633225 C0.811866238,87.6633225 0.980362712,86.2991314 1.81186624,85.8633225 C7.00608073,83.1409231 24.6118662,80.8078005 40.3797258,84.6661634 C42.3613742,85.1510687 42.750045,87.4359265 42.3699258,88.1633225 C38.4260532,95.7103175 31.526699,98.4781227 23.2118662,98.8633225 C14.8970335,99.2485224 6.71186624,94.8633225 1.21186624,88.1633225 Z" id="nose" stroke="#351904" stroke-width="4" fill="#351904" fill-rule="nonzero"/>
                <path d="M90.4568462,71.7936853 C88.8896026,69.9149599 90.4568462,64.2794005 93.4292048,64.2794005 C96.4015635,64.2794005 97.5997617,67.2803946 96.5959891,69.805975 C95.5922165,72.3315553 92.0240897,73.6724106 90.4568462,71.7936853 Z" id="right-eye" fill="#351904" fill-rule="nonzero"/>
                <path d="M74.8566983,59.5280795 C71.5363779,60.9290302 71.1140119,65.6207602 72.9853551,67.0490029 C74.8566983,68.4772457 76.8789086,67.9415882 78.559976,65.3479696 C80.2410434,62.7543509 78.1770188,58.1271287 74.8566983,59.5280795 Z" id="left-eye" fill="#351904" fill-rule="nonzero"/>
            </g>
        </g>
    </g>
</svg>