<?xml version="1.0" encoding="UTF-8" standalone="no"?>
<!-- Created with Inkscape (http://www.inkscape.org/) -->

<svg
   width="187.02478mm"
   height="68.383057mm"
   viewBox="0 0 187.02479 68.383056"
   version="1.1"
   id="svg1"
   xml:space="preserve"
   inkscape:version="1.4.3 (0d15f75, 2025-12-25)"
   sodipodi:docname="multi-source-hero.svg"
   xmlns:inkscape="http://www.inkscape.org/namespaces/inkscape"
   xmlns:sodipodi="http://sodipodi.sourceforge.net/DTD/sodipodi-0.dtd"
   xmlns="http://www.w3.org/2000/svg"
   xmlns:svg="http://www.w3.org/2000/svg"><sodipodi:namedview
     id="namedview1"
     pagecolor="#ffffff"
     bordercolor="#000000"
     borderopacity="0.25"
     inkscape:showpageshadow="2"
     inkscape:pageopacity="0.0"
     inkscape:pagecheckerboard="0"
     inkscape:deskcolor="#d1d1d1"
     inkscape:document-units="mm"
     inkscape:zoom="2.4315228"
     inkscape:cx="448.48439"
     inkscape:cy="186.09737"
     inkscape:window-width="1920"
     inkscape:window-height="1142"
     inkscape:window-x="2860"
     inkscape:window-y="1470"
     inkscape:window-maximized="1"
     inkscape:current-layer="layer1" /><defs
     id="defs1"><rect
       x="305.34863"
       y="412.36603"
       width="115.16005"
       height="109.34389"
       id="rect12" /><clipPath
       id="a"><path
         d="M 0,0.113 H 91.887 V 92 H 0 Z m 0,0"
         id="path1" /></clipPath><style
       id="style1">.cls-1{fill:#0f1689;}</style></defs><g
     inkscape:label="Layer 1"
     inkscape:groupmode="layer"
     id="layer1"
     transform="translate(27.108765,-102.35457)"><g
       style="fill:none;stroke-width:10;stroke-linecap:butt;stroke-linejoin:bevel;stroke-dasharray:none"
       id="g1"
       transform="matrix(0.15569582,0,0,0.15569582,112.71531,106.13268)"><circle
         cx="151.58"
         cy="145.778"
         fill="url(#m)"
         opacity="0.2"
         r="110.965"
         id="circle18"
         style="stroke-width:10;stroke-linecap:butt;stroke-linejoin:bevel;stroke-dasharray:none" /><path
         clip-rule="evenodd"
         d="m 151.58,284.303 c 76.505,0 138.525,-62.02 138.525,-138.525 0,-76.5053 -62.02,-138.52507 -138.525,-138.52507 -76.5056,0 -138.5253,62.01977 -138.5253,138.52507 0,76.505 62.0197,138.525 138.5253,138.525 z m 0,-27.56 c 61.284,0 110.965,-49.681 110.965,-110.965 0,-61.2844 -49.681,-110.9652 -110.965,-110.9652 -61.2846,0 -110.9653,49.6808 -110.9653,110.9652 0,61.284 49.6807,110.965 110.9653,110.965 z"
         fill="#5e6294"
         fill-rule="evenodd"
         opacity="0.14"
         id="path19"
         style="stroke-width:10;stroke-linecap:butt;stroke-linejoin:bevel;stroke-dasharray:none" /><path
         d="m 88.1706,203.918 c -15.1789,-6.575 -25.7981,-21.689 -25.7981,-39.284 0,-16.452 9.2841,-30.735 22.8988,-37.896 -0.944,-37.611 29.2987,-68.7175 67.0337,-68.7175 37.735,0 67.978,31.1066 67.034,68.7175 13.614,7.161 22.898,21.444 22.898,37.896 0,17.595 -10.619,32.709 -25.798,39.284 l -2.477,65.83 c 0.709,17.04 5.847,18.453 25.176,23.768 1.865,0.513 3.862,1.062 6,1.665 -15.921,3.639 -25.922,4.14 -32.218,2.24 l -1.144,30.397 c -2.553,28.73 -2.297,28.797 17.096,33.844 2.636,0.686 5.627,1.464 9.013,2.419 -41.756,9.544 -42.3,-9.368 -42.791,-26.471 -0.098,-3.417 -0.195,-6.761 -0.617,-9.792 h -1.556 c -0.093,1.151 -0.185,2.268 -0.273,3.354 l -0.002,0.027 c -1.948,23.92 -2.617,32.129 1.139,35.75 1.962,1.892 5.132,2.53 9.959,3.503 5.047,1.016 11.905,2.398 21.087,5.958 -49.237,6.856 -49.199,-8.783 -49.135,-35.41 0.01,-4.143 0.02,-8.551 -0.154,-13.182 h -1.478 c -2.282,51.329 0.37,51.979 17.83,56.263 4.743,1.163 10.579,2.595 17.707,5.384 -50.176,5.575 -52.184,-8.683 -55.276,-30.648 -0.548,-3.891 -1.13,-8.024 -2.02,-12.332 -0.89,4.308 -1.472,8.44 -2.02,12.331 -3.093,21.965 -5.1,36.224 -55.2757,30.649 7.1277,-2.789 12.9637,-4.221 17.7067,-5.384 17.46,-4.284 20.112,-4.934 17.83,-56.263 h -1.478 c -0.174,4.631 -0.164,9.039 -0.154,13.182 0.064,26.627 0.102,42.266 -49.1352,35.41 9.1819,-3.56 16.0399,-4.942 21.0872,-5.958 4.827,-0.973 7.997,-1.611 9.959,-3.503 3.756,-3.621 3.087,-11.83 1.139,-35.75 -0.089,-1.093 -0.181,-2.22 -0.275,-3.381 h -1.556 c -0.422,3.031 -0.519,6.375 -0.617,9.792 -0.491,17.103 -1.035,36.015 -42.7907,26.471 3.3855,-0.955 6.3761,-1.733 9.013,-2.419 19.3926,-5.047 19.649,-5.114 17.0952,-33.844 l -1.144,-30.397 c -6.2952,1.9 -16.2963,1.399 -32.2181,-2.24 2.1382,-0.603 4.1354,-1.152 6.0006,-1.665 19.3291,-5.315 24.4667,-6.728 25.176,-23.768 z"
         fill="#ef7b4d"
         id="path20"
         style="stroke-width:10;stroke-linecap:butt;stroke-linejoin:bevel;stroke-dasharray:none" /><circle
         cx="102.987"
         cy="165.36"
         fill="#fefefe"
         r="31.911501"
         id="circle20"
         style="stroke-width:10;stroke-linecap:butt;stroke-linejoin:bevel;stroke-dasharray:none" /><circle
         cx="102.262"
         cy="160.282"
         fill="#000000"
         r="10.8789"
         id="circle21"
         style="stroke-width:10;stroke-linecap:butt;stroke-linejoin:bevel;stroke-dasharray:none" /><circle
         cx="197.271"
         cy="165.36"
         fill="#fefefe"
         r="31.911501"
         id="circle22"
         inkscape:label="circle22"
         style="stroke-width:10;stroke-linecap:butt;stroke-linejoin:bevel;stroke-dasharray:none" /><circle
         cx="196.54601"
         cy="160.282"
         fill="#000000"
         r="10.8789"
         id="circle23"
         style="stroke-width:10;stroke-linecap:butt;stroke-linejoin:bevel;stroke-dasharray:none" /><path
         d="m 127.646,224.831 c 0,0 11.604,11.604 24.659,11.604 13.055,0 24.659,-11.604 24.659,-11.604 v 14.505 c 0,13.619 -11.04,24.659 -24.659,24.659 -13.619,0 -24.659,-11.04 -24.659,-24.659 z"
         fill="#fafafa"
         id="path23"
         style="stroke-width:10;stroke-linecap:butt;stroke-linejoin:bevel;stroke-dasharray:none" /><path
         d="m 127.646,236.435 c 0,0 11.604,11.604 24.659,11.604 13.055,0 24.659,-11.604 24.659,-11.604 v 2.901 c 0,13.619 -11.04,24.659 -24.659,24.659 -13.619,0 -24.659,-11.04 -24.659,-24.659 z"
         fill="#202124"
         id="path24"
         style="stroke-width:10;stroke-linecap:butt;stroke-linejoin:bevel;stroke-dasharray:none" /><path
         d="M 59.4453,215.163 C 45.0211,195.999 36.4304,172.187 36.324,146.357 36.1526,104.731 58.0585,68.1646 91.0383,47.7539"
         opacity="0.16"
         stroke="#5e6294"
         stroke-linecap="round"
         stroke-width="8.70314"
         id="path25"
         style="stroke-width:10;stroke-linecap:butt;stroke-linejoin:bevel;stroke-dasharray:none" /><circle
         cx="105.888"
         cy="37.713699"
         fill="#5e6294"
         opacity="0.45"
         r="5.8020902"
         id="circle25"
         style="stroke-width:10;stroke-linecap:butt;stroke-linejoin:bevel;stroke-dasharray:none" /><rect
         fill="#5e6294"
         height="66.724098"
         rx="5.8020902"
         width="13.0547"
         y="113.141"
         id="rect25"
         x="0"
         style="stroke-width:10;stroke-linecap:butt;stroke-linejoin:bevel;stroke-dasharray:none" /><rect
         fill="#5e6294"
         height="66.724098"
         rx="5.8020902"
         width="13.0547"
         x="290.10501"
         y="113.141"
         id="rect26"
         style="stroke-width:10;stroke-linecap:butt;stroke-linejoin:bevel;stroke-dasharray:none" /><path
         clip-rule="evenodd"
         d="m 151.58,291.555 c 80.511,0 145.777,-65.267 145.777,-145.777 C 297.357,65.2669 232.091,0 151.58,0 71.069,0 5.80212,65.2669 5.80212,145.778 c 0,80.51 65.26688,145.777 145.77788,145.777 z m 0,-7.252 c 76.505,0 138.525,-62.02 138.525,-138.525 0,-76.5055 -62.02,-138.52525 -138.525,-138.52525 -76.5056,0 -138.5253,62.01975 -138.5253,138.52525 0,76.505 62.0197,138.525 138.5253,138.525 z"
         fill="#5e6294"
         fill-opacity="0.2"
         fill-rule="evenodd"
         id="path26"
         style="stroke-width:10;stroke-linecap:butt;stroke-linejoin:bevel;stroke-dasharray:none" /><path
         d="m 136.997,90.7907 c -1.458,6.8223 -7.382,11.3393 -13.232,10.0893 -5.851,-1.2502 -9.602,-6.7115 -8.144,-13.5338 1.458,-6.8222 10.374,-14.0697 16.224,-12.8196 5.851,1.2502 6.61,9.4419 5.152,16.2641 z"
         fill="#f77f4f"
         id="path27"
         style="stroke-width:10;stroke-linecap:butt;stroke-linejoin:bevel;stroke-dasharray:none" /></g><text
       xml:space="preserve"
       transform="scale(0.26458333)"
       id="text12"
       style="font-style:normal;font-variant:normal;font-weight:normal;font-stretch:normal;font-family:'Comic Sans MS';-inkscape-font-specification:'Comic Sans MS';letter-spacing:0px;writing-mode:lr-tb;direction:ltr;white-space:pre;shape-inside:url(#rect12);display:inline;fill:#ef7b4d;fill-opacity:1;stroke:#ed6a36;stroke-width:37.7953;stroke-linecap:round;stroke-linejoin:round;stroke-dasharray:none;stroke-opacity:1" /><path
       style="fill:#f03c2e;fill-opacity:1;fill-rule:nonzero;stroke:none;stroke-width:0.664277"
       d="M 32.780575,133.82777 6.1298118,107.17901 a 3.9311866,3.9311866 0 0 0 -5.56131897,0 l -5.53209303,5.53474 7.018742,7.01874 a 4.6698618,4.6698618 0 0 1 4.802718,1.11865 4.6725189,4.6725189 0 0 1 1.108677,4.83393 l 6.7669812,6.76499 a 4.6685332,4.6685332 0 0 1 4.834603,1.11066 4.6765046,4.6765046 0 0 1 0,6.6142 4.6831472,4.6831472 0 0 1 -6.619513,0 4.6791617,4.6791617 0 0 1 -1.015013,-5.08834 l -6.3106252,-6.30865 v 16.60492 a 4.6765046,4.6765046 0 0 1 1.235555,7.49968 4.6765046,4.6765046 0 0 1 -6.61419997,0 4.6765046,4.6765046 0 0 1 0,-6.61486 4.68979,4.68979 0 0 1 1.53049297,-1.02231 v -16.75771 a 4.6824831,4.6824831 0 0 1 -2.53753497,-6.13392 l -6.92043003,-6.92175 -18.2755668,18.27091 a 3.9358365,3.9358365 0 0 0 0,5.56065 l 26.65209083,26.65209 a 3.9358365,3.9358365 0 0 0 5.55999097,0 L 32.780575,139.38842 a 3.9358365,3.9358365 0 0 0 0,-5.56065"
       id="path2"
       clip-path="url(#clipPath2)" /><g
       id="g13"
       transform="matrix(0.13812476,0,0,0.13812476,38.929903,101.98929)"
       style="stroke:#080a40;stroke-width:2.44706;stroke-linecap:round;stroke-linejoin:round;stroke-dasharray:none;stroke-opacity:1"><path
         class="cls-1"
         d="m 136.52938,121.13478 c -0.572,-0.54252 -1.19462,-1.12636 -1.81,-1.71761 -12.61677,-12.12115 -22.38092,-26.13637 -28.279,-42.702 -1.65073,-4.63637 -2.89692,-9.36515 -2.67587,-14.35871 0.021,-0.4739 0.0196,-0.94915 0.0523,-1.42214 0.445,-6.44594 4.75912,-9.70322 11.05839,-8.17669 a 27.325,27.325 0 0 1 5.73149,2.19653 c 6.89022,3.45538 12.5062,8.56359 17.67051,14.16571 a 112.52651,112.52651 0 0 1 21.722,33.42965 8.29635,8.29635 0 0 0 0.38946,0.861 c 0.0712,0.12855 0.22232,0.21282 0.55927,0.51883 A 176.357,176.357 0 0 1 241.968,79.06864 c -0.17651,-0.8761 -0.28195,-1.54571 -0.44772,-2.2 a 112.49436,112.49436 0 0 1 -2.65292,-36.95637 84.07478,84.07478 0 0 1 4.44444,-21.76378 31.32555,31.32555 0 0 1 5.47651,-10.17139 15.687,15.687 0 0 1 3.16336,-2.82149 7.026,7.026 0 0 1 8.03255,-0.056 17.27854,17.27854 0 0 1 5.8402,6.73185 53.05435,53.05435 0 0 1 5.26215,14.67654 112.50469,112.50469 0 0 1 2.12263,33.00356 95.59806,95.59806 0 0 1 -3.49052,19.91081 c 7.12171,1.31193 14.20955,2.32869 21.1473,3.97713 a 186.37909,186.37909 0 0 1 20.44069,6.0033 188.31671,188.31671 0 0 1 19.77023,8.5693 c 6.34538,3.16433 12.38553,6.94066 18.71757,10.53829 0.20571,-0.433 0.50439,-0.94982 0.706,-1.50212 a 108.65959,108.65959 0 0 1 32.90081,-46.76227 37.75787,37.75787 0 0 1 11.822,-6.883 17.24558,17.24558 0 0 1 3.67827,-0.84512 c 6.264,-0.71729 8.89351,3.2244 9.35653,7.93183 A 29.94372,29.94372 0 0 1 407.48427,70.80437 87.90551,87.90551 0 0 1 396.75426,95.492 c -6.79016,10.97178 -14.85015,20.85494 -25.09307,28.83042 -0.30234,0.2354 -0.56784,0.51814 -1.07988,0.99029 a 177.77993,177.77993 0 0 1 26.59293,30.88244 10.96227,10.96227 0 0 1 -1.689,0.29762 c -10.59546,0.015 -21.1911,-0.0183 -31.78622,0.0461 a 4.004,4.004 0 0 1 -3.17246,-1.69 147.87522,147.87522 0 0 0 -88.17776,-46.54846 143.35862,143.35862 0 0 0 -30.27955,-1.16923 146.40735,146.40735 0 0 0 -82.53728,31.81054 140.06663,140.06663 0 0 0 -16.97616,15.84186 4.72839,4.72839 0 0 1 -3.86326,1.75742 c -10.12056,-0.0703 -20.24188,-0.035 -30.36293,-0.0349 h -2.15212 c 0.618,-2.408 6.84026,-10.93786 13.88352,-18.55281 5.25247,-5.67881 10.81666,-11.06931 16.46836,-16.81843 z"
         id="path1-1"
         style="stroke:#080a40;stroke-width:2.44706;stroke-linecap:round;stroke-linejoin:round;stroke-dasharray:none;stroke-opacity:1" /><path
         class="cls-1"
         d="m 394.52934,347.9123 a 176.63854,176.63854 0 0 1 -23.97343,27.16338 c 0.70941,0.59068 1.28594,1.07041 1.86212,1.55057 a 108.31456,108.31456 0 0 1 33.68328,48.14575 34.61831,34.61831 0 0 1 2.202,14.42026 14.88544,14.88544 0 0 1 -0.74786,3.69206 7.20762,7.20762 0 0 1 -8.15793,5.02308 22.23329,22.23329 0 0 1 -6.76276,-2.00629 51.23237,51.23237 0 0 1 -9.18151,-5.8151 107.59183,107.59183 0 0 1 -32.936,-46.7072 c -0.18746,-0.51334 -0.39218,-1.0204 -0.72243,-1.87691 a 194.65008,194.65008 0 0 1 -25.01223,14.00774 181.66925,181.66925 0 0 1 -26.6869,9.72442 187.55649,187.55649 0 0 1 -28.3045,5.38805 c 0.16807,0.84015 0.26446,1.5098 0.43745,2.15907 a 109.172,109.172 0 0 1 2.9708,36.44311 80.804,80.804 0 0 1 -4.42286,22.4773 78.24971,78.24971 0 0 1 -4.16475,8.74473 13.39,13.39 0 0 1 -2.33865,2.97083 c -3.98009,4.109 -8.73225,4.144 -12.61157,-0.0737 a 27.28012,27.28012 0 0 1 -3.907,-5.61776 c -3.07685,-5.77569 -4.6604,-12.056 -5.791,-18.46021 a 116.86329,116.86329 0 0 1 -1.35893,-26.465 94.4795,94.4795 0 0 1 2.88466,-19.18513 c 0.14009,-0.53269 0.268,-1.0696 0.37134,-1.61034 0.0263,-0.13754 -0.0634,-0.2973 -0.17067,-0.73825 A 176.12108,176.12108 0 0 1 160.72146,396.2729 c -0.40992,0.90921 -0.76206,1.67473 -1.10168,2.44579 a 110.47729,110.47729 0 0 1 -30.90112,41.42041 38.16071,38.16071 0 0 1 -12.04706,6.95909 12.08987,12.08987 0 0 1 -6.51516,0.70023 7.11858,7.11858 0 0 1 -5.40329,-4.4892 c -1.41614,-3.424 -1.16526,-6.985 -0.68438,-10.51691 a 55.45267,55.45267 0 0 1 4.30768,-14.25037 112.49985,112.49985 0 0 1 26.51116,-37.76298 c 0.459,-0.43461 0.92981,-0.857 1.38087,-1.29954 a 3.76029,3.76029 0 0 0 0.36534,-0.65529 178.90466,178.90466 0 0 1 -28.469,-31.31672 c 0.98458,-0.0802 1.64327,-0.18 2.30205,-0.1806 10.51436,-0.01 21.029,0.0274 31.54284,-0.0436 a 4.70554,4.70554 0 0 1 3.70344,1.62615 146.94611,146.94611 0 0 0 39.40276,28.88494 139.94667,139.94667 0 0 0 49.70395,14.77367 q 70.68048,6.87067 121.59971,-42.85452 a 7.64571,7.64571 0 0 1 5.99261,-2.44347 c 9.80139,0.12121 19.60512,0.0499 29.408,0.0499 h 2.53353 z"
         id="path2-4"
         style="stroke:#080a40;stroke-width:2.44706;stroke-linecap:round;stroke-linejoin:round;stroke-dasharray:none;stroke-opacity:1" /><path
         class="cls-1"
         d="m 350.73576,197.76167 c 2.78711,0 5.47037,0.18919 8.11487,-0.0501 2.9951,-0.271 5.139,0.8001 7.32354,2.81308 12.61275,11.62214 25.35732,23.10129 38.05863,34.62729 0.63855,0.57948 1.29039,1.14432 2.1101,1.8701 0.76445,-0.65718 1.48119,-1.24318 2.16483,-1.8655 Q 428.14636,217.27914 447.756,199.37 a 5.44772,5.44772 0 0 1 4.20358,-1.64576 c 3.21888,0.13038 6.44673,0.0375 9.8412,0.0375 V 303.1304 c -1.72309,0.50368 -24.8756,0.60366 -27.63911,0.0611 v -53.362 l -0.53656,-0.25427 c -9.01079,8.21784 -18.0216,16.43564 -27.23786,24.8408 -9.22584,-8.31119 -18.34194,-16.52347 -27.458,-24.73577 l -0.52449,0.19192 c -0.023,4.45359 -0.008,8.90828 -0.0105,13.36233 q -0.004,6.63942 -5.8e-4,13.27882 v 26.87211 h -27.428 c -0.51411,-1.77297 -0.75283,-99.66198 -0.22996,-105.62373 z"
         id="path3"
         style="stroke:#080a40;stroke-width:2.44706;stroke-linecap:round;stroke-linejoin:round;stroke-dasharray:none;stroke-opacity:1" /><path
         class="cls-1"
         d="m 97.63436,197.88229 h 27.26325 c 0.55054,1.75251 0.65821,102.97139 0.0947,105.525 H 97.70468 c -0.15021,-6.70344 -0.04736,-13.38394 -0.06622,-20.06131 -0.01871,-6.62261 -0.0041,-13.24531 -0.0041,-20.03958 H 63.84679 v 39.7406 c -2.05946,0.61518 -25.33374,0.67417 -27.64758,0.123 V 197.89436 h 27.53821 v 37.18876 c 1.96793,0.56844 30.92319,0.67339 33.872,0.12942 0.0082,-2.97713 0.02,-6.02646 0.024,-9.0758 q 0.0063,-4.7433 9.4e-4,-9.4866 0,-4.625 0,-9.25 c 1e-5,-3.07835 0,-6.15668 0,-9.51785 z"
         id="path4"
         style="stroke:#080a40;stroke-width:2.44706;stroke-linecap:round;stroke-linejoin:round;stroke-dasharray:none;stroke-opacity:1" /><path
         class="cls-1"
         d="M 157.5757,303.3683 V 198.1946 c 1.617,-0.52913 61.545,-0.73586 65.46219,-0.20457 v 22.41432 c -0.87869,0.063 -1.7857,0.18341 -2.69279,0.18454 q -16.0086,0.0199 -32.01725,0.009 h -2.96767 v 17.43353 h 33.34652 v 23.19167 h -33.04832 c -0.55339,1.98509 -0.70531,15.81681 -0.25622,19.64583 0.84488,0.0568 1.75,0.16952 2.6553,0.17059 q 16.00862,0.0186 32.01727,0.008 h 2.96945 v 22.32076 z"
         id="path5"
         style="stroke:#080a40;stroke-width:2.44706;stroke-linecap:round;stroke-linejoin:round;stroke-dasharray:none;stroke-opacity:1" /><path
         class="cls-1"
         d="m 254.28291,303.40855 c -0.50074,-2.82232 -0.39948,-103.60181 0.0975,-105.51735 h 27.16208 v 77.76453 c 1.17173,0.0608 2.09122,0.14921 3.01077,0.15005 q 16.128,0.0147 32.2561,0.007 c 0.92562,0 1.85125,0 2.90733,0 V 303.409 Z"
         id="path6"
         style="stroke:#080a40;stroke-width:2.44706;stroke-linecap:round;stroke-linejoin:round;stroke-dasharray:none;stroke-opacity:1" /></g></g></svg>
